<svg xmlns="http://www.w3.org/2000/svg" fill="none" viewBox="0 0 190 522" xmlns:v="https://vecta.io/nano"><g fill-rule="evenodd"><path fill="url(#A)" d="M5.723 519.139a2.86 2.86 0 1 0-5.723 0 2.86 2.86 0 1 0 5.723 0zm26.325 0a2.86 2.86 0 1 0-5.723 0 2.86 2.86 0 1 0 5.723 0zm23.464-2.862a2.86 2.86 0 1 1 0 5.723 2.86 2.86 0 1 1 0-5.723zm29.187 2.862a2.86 2.86 0 1 0-5.723 0 2.86 2.86 0 1 0 5.723 0zm23.464-2.862a2.86 2.86 0 1 1 0 5.723 2.86 2.86 0 1 1 0-5.723zm29.186 2.862a2.86 2.86 0 1 0-5.722 0 2.86 2.86 0 1 0 5.722 0zm23.464-2.862a2.86 2.86 0 1 1 0 5.723 2.86 2.86 0 1 1 0-5.723zM190 519.139a2.86 2.86 0 1 0-5.723 0 2.86 2.86 0 1 0 5.723 0zM2.861 489.952a2.86 2.86 0 0 1 0 5.723A2.86 2.86 0 0 1 0 492.813a2.86 2.86 0 0 1 2.861-2.861zm29.187 2.861a2.86 2.86 0 1 0-5.723 0 2.86 2.86 0 1 0 5.723 0zm23.464-2.861a2.86 2.86 0 0 1 0 5.723 2.86 2.86 0 1 1 0-5.723zm29.187 2.861a2.86 2.86 0 1 0-5.723 0 2.86 2.86 0 1 0 5.723 0zm23.464-2.861a2.86 2.86 0 0 1 0 5.723 2.86 2.86 0 1 1 0-5.723zm29.186 2.861a2.86 2.86 0 1 0-5.722 0 2.86 2.86 0 1 0 5.722 0zm23.464-2.861a2.86 2.86 0 1 1 0 5.723 2.86 2.86 0 0 1 0-5.723zM190 492.813a2.86 2.86 0 1 0-5.723 0 2.86 2.86 0 1 0 5.723 0zM2.861 463.626c1.58 0 2.861 1.282 2.861 2.862a2.86 2.86 0 0 1-2.861 2.861A2.86 2.86 0 0 1 0 466.488c0-1.58 1.281-2.862 2.861-2.862zm29.187 2.862a2.86 2.86 0 1 0-5.723 0 2.86 2.86 0 1 0 5.723 0zm23.464-2.861a2.86 2.86 0 1 1 0 5.722 2.86 2.86 0 1 1 0-5.722zm29.187 2.861c0-1.58-1.281-2.862-2.861-2.862s-2.862 1.282-2.862 2.862a2.86 2.86 0 1 0 5.723 0zm23.464-2.861a2.86 2.86 0 1 1 0 5.722 2.86 2.86 0 1 1 0-5.722zm29.186 2.861a2.86 2.86 0 1 0-5.722 0 2.86 2.86 0 1 0 5.722 0zm23.464-2.862c1.581 0 2.862 1.282 2.862 2.862a2.86 2.86 0 1 1-5.723 0c0-1.58 1.281-2.862 2.861-2.862zM190 466.488c0-1.58-1.281-2.862-2.861-2.862s-2.862 1.282-2.862 2.862a2.86 2.86 0 1 0 5.723 0zM2.861 437.301a2.86 2.86 0 0 1 0 5.723A2.86 2.86 0 0 1 0 440.163a2.86 2.86 0 0 1 2.861-2.862zm29.187 2.862a2.86 2.86 0 1 0-5.723 0 2.86 2.86 0 1 0 5.723 0zm23.464-2.862a2.86 2.86 0 0 1 0 5.723 2.86 2.86 0 1 1 0-5.723zm29.187 2.862a2.86 2.86 0 1 0-5.723 0 2.86 2.86 0 1 0 5.723 0zm23.464-2.862a2.86 2.86 0 0 1 0 5.723 2.86 2.86 0 1 1 0-5.723zm29.186 2.862a2.86 2.86 0 1 0-5.722 0 2.86 2.86 0 1 0 5.722 0zm23.464-2.862a2.86 2.86 0 1 1 0 5.723 2.86 2.86 0 0 1 0-5.723zM190 440.163a2.86 2.86 0 1 0-5.723 0 2.86 2.86 0 1 0 5.723 0zM2.861 410.976a2.86 2.86 0 0 1 0 5.723A2.86 2.86 0 0 1 0 413.837a2.86 2.86 0 0 1 2.861-2.861zm29.187 2.861a2.86 2.86 0 1 0-5.723 0 2.86 2.86 0 1 0 5.723 0zm23.464-2.861a2.86 2.86 0 0 1 0 5.723 2.86 2.86 0 1 1 0-5.723zm29.187 2.861a2.86 2.86 0 1 0-5.723 0 2.86 2.86 0 1 0 5.723 0zm23.464-2.861a2.86 2.86 0 0 1 0 5.723 2.86 2.86 0 1 1 0-5.723zm29.186 2.861a2.86 2.86 0 1 0-5.722 0 2.86 2.86 0 1 0 5.722 0zm23.464-2.861a2.86 2.86 0 1 1 0 5.723 2.86 2.86 0 0 1 0-5.723zM190 413.837a2.86 2.86 0 1 0-5.723 0 2.86 2.86 0 1 0 5.723 0zM2.861 384.651a2.86 2.86 0 1 1 0 5.722A2.86 2.86 0 0 1 0 387.512a2.86 2.86 0 0 1 2.861-2.861zm29.187 2.861a2.86 2.86 0 1 0-5.723 0 2.86 2.86 0 1 0 5.723 0zm23.464-2.861a2.86 2.86 0 1 1 0 5.722 2.86 2.86 0 1 1 0-5.722zm29.187 2.861a2.86 2.86 0 1 0-5.723 0 2.86 2.86 0 1 0 5.723 0zm23.464-2.861a2.86 2.86 0 1 1 0 5.722 2.86 2.86 0 1 1 0-5.722zm29.186 2.861a2.86 2.86 0 1 0-5.722 0 2.86 2.86 0 1 0 5.722 0zm23.464-2.861a2.86 2.86 0 1 1 0 5.722 2.86 2.86 0 1 1 0-5.722zM190 387.512a2.86 2.86 0 1 0-5.723 0 2.86 2.86 0 1 0 5.723 0zM2.861 358.325a2.86 2.86 0 0 1 0 5.723A2.86 2.86 0 0 1 0 361.187a2.86 2.86 0 0 1 2.861-2.862zm29.187 2.862a2.86 2.86 0 1 0-5.723 0 2.86 2.86 0 1 0 5.723 0zm23.464-2.862a2.86 2.86 0 0 1 0 5.723 2.86 2.86 0 1 1 0-5.723zm29.187 2.862a2.86 2.86 0 1 0-5.723 0 2.86 2.86 0 1 0 5.723 0zm23.464-2.862a2.86 2.86 0 0 1 0 5.723 2.86 2.86 0 1 1 0-5.723zm29.186 2.862a2.86 2.86 0 1 0-5.722 0 2.86 2.86 0 1 0 5.722 0zm23.464-2.862a2.86 2.86 0 1 1 0 5.723 2.86 2.86 0 0 1 0-5.723zM190 361.187a2.86 2.86 0 1 0-5.723 0 2.86 2.86 0 1 0 5.723 0zM2.861 332a2.86 2.86 0 0 1 0 5.723A2.86 2.86 0 0 1 0 334.861 2.86 2.86 0 0 1 2.861 332zm29.187 2.861a2.86 2.86 0 1 0-5.723 0 2.86 2.86 0 1 0 5.723 0zM55.512 332a2.86 2.86 0 0 1 0 5.723 2.86 2.86 0 1 1 0-5.723zm29.187 2.861a2.86 2.86 0 1 0-5.723 0 2.86 2.86 0 1 0 5.723 0zM108.163 332a2.86 2.86 0 0 1 0 5.723 2.86 2.86 0 1 1 0-5.723zm29.186 2.861a2.86 2.86 0 1 0-5.722 0 2.86 2.86 0 1 0 5.722 0zM160.813 332a2.86 2.86 0 1 1 0 5.723 2.86 2.86 0 0 1 0-5.723zM190 334.861a2.86 2.86 0 1 0-5.723 0 2.86 2.86 0 1 0 5.723 0z"/><path fill="url(#B)" d="M5.723 314.139a2.86 2.86 0 1 0-5.723 0 2.86 2.86 0 1 0 5.723 0zm26.325 0a2.86 2.86 0 1 0-5.723 0 2.86 2.86 0 1 0 5.723 0zm23.464-2.862a2.86 2.86 0 0 1 0 5.723 2.86 2.86 0 1 1 0-5.723zm29.187 2.862a2.86 2.86 0 1 0-5.723 0 2.86 2.86 0 1 0 5.723 0zm23.464-2.862a2.86 2.86 0 0 1 0 5.723 2.86 2.86 0 1 1 0-5.723zm29.186 2.862a2.86 2.86 0 1 0-5.722 0 2.86 2.86 0 1 0 5.722 0zm23.464-2.862a2.86 2.86 0 1 1 0 5.723 2.86 2.86 0 0 1 0-5.723zM190 314.139a2.86 2.86 0 1 0-5.723 0 2.86 2.86 0 1 0 5.723 0zM2.861 284.952a2.86 2.86 0 0 1 0 5.723A2.86 2.86 0 0 1 0 287.813a2.86 2.86 0 0 1 2.861-2.861zm29.187 2.861a2.86 2.86 0 1 0-5.723 0 2.86 2.86 0 1 0 5.723 0zm23.464-2.861a2.86 2.86 0 0 1 0 5.723 2.86 2.86 0 1 1 0-5.723zm29.187 2.861a2.86 2.86 0 1 0-5.723 0 2.86 2.86 0 1 0 5.723 0zm23.464-2.861a2.86 2.86 0 0 1 0 5.723 2.86 2.86 0 1 1 0-5.723zm29.186 2.861a2.86 2.86 0 1 0-5.722 0 2.86 2.86 0 1 0 5.722 0zm23.464-2.861a2.86 2.86 0 1 1 0 5.723 2.86 2.86 0 0 1 0-5.723zM190 287.813a2.86 2.86 0 1 0-5.723 0 2.86 2.86 0 1 0 5.723 0zM2.861 258.626c1.58 0 2.861 1.282 2.861 2.862a2.86 2.86 0 0 1-2.861 2.861A2.86 2.86 0 0 1 0 261.488c0-1.58 1.281-2.862 2.861-2.862zm29.187 2.862a2.86 2.86 0 1 0-5.723 0 2.86 2.86 0 1 0 5.723 0zm23.464-2.861a2.86 2.86 0 1 1 0 5.722 2.86 2.86 0 1 1 0-5.722zm29.187 2.861c0-1.58-1.281-2.862-2.861-2.862s-2.862 1.282-2.862 2.862a2.86 2.86 0 1 0 5.723 0zm23.464-2.861a2.86 2.86 0 1 1 0 5.722 2.86 2.86 0 1 1 0-5.722zm29.186 2.861a2.86 2.86 0 1 0-5.722 0 2.86 2.86 0 1 0 5.722 0zm23.464-2.862c1.581 0 2.862 1.282 2.862 2.862a2.86 2.86 0 1 1-5.723 0c0-1.58 1.281-2.862 2.861-2.862zM190 261.488c0-1.58-1.281-2.862-2.861-2.862s-2.862 1.282-2.862 2.862a2.86 2.86 0 1 0 5.723 0zM2.861 232.301a2.86 2.86 0 1 1 0 5.723A2.86 2.86 0 0 1 0 235.163a2.86 2.86 0 0 1 2.861-2.862zm29.187 2.862a2.86 2.86 0 1 0-5.723 0 2.86 2.86 0 1 0 5.723 0zm23.464-2.862a2.86 2.86 0 1 1 0 5.723 2.86 2.86 0 1 1 0-5.723zm29.187 2.862a2.86 2.86 0 1 0-5.723 0 2.86 2.86 0 1 0 5.723 0zm23.464-2.862a2.86 2.86 0 1 1 0 5.723 2.86 2.86 0 1 1 0-5.723zm29.186 2.862a2.86 2.86 0 1 0-5.722 0 2.86 2.86 0 1 0 5.722 0zm23.464-2.862a2.86 2.86 0 1 1 0 5.723 2.86 2.86 0 1 1 0-5.723zM190 235.163a2.86 2.86 0 1 0-5.723 0 2.86 2.86 0 1 0 5.723 0zM2.861 205.976a2.86 2.86 0 1 1 0 5.723A2.86 2.86 0 0 1 0 208.837a2.86 2.86 0 0 1 2.861-2.861zm29.187 2.861a2.86 2.86 0 1 0-5.723 0 2.86 2.86 0 1 0 5.723 0zm23.464-2.861a2.86 2.86 0 1 1 0 5.723 2.86 2.86 0 1 1 0-5.723zm29.187 2.861a2.86 2.86 0 1 0-5.723 0 2.86 2.86 0 1 0 5.723 0zm23.464-2.861a2.86 2.86 0 1 1 0 5.723 2.86 2.86 0 1 1 0-5.723zm29.186 2.861a2.86 2.86 0 1 0-5.722 0 2.86 2.86 0 1 0 5.722 0zm23.464-2.861a2.86 2.86 0 1 1 0 5.723 2.86 2.86 0 1 1 0-5.723zM190 208.837a2.86 2.86 0 1 0-5.723 0 2.86 2.86 0 1 0 5.723 0zM2.861 179.651a2.86 2.86 0 1 1 0 5.722A2.86 2.86 0 0 1 0 182.512a2.86 2.86 0 0 1 2.861-2.861zm29.187 2.861a2.86 2.86 0 1 0-5.723 0 2.86 2.86 0 1 0 5.723 0zm23.464-2.861a2.86 2.86 0 1 1 0 5.722 2.86 2.86 0 1 1 0-5.722zm29.187 2.861a2.86 2.86 0 1 0-5.723 0 2.86 2.86 0 1 0 5.723 0zm23.464-2.861a2.86 2.86 0 1 1 0 5.722 2.86 2.86 0 1 1 0-5.722zm29.186 2.861a2.86 2.86 0 1 0-5.722 0 2.86 2.86 0 1 0 5.722 0zm23.464-2.861a2.86 2.86 0 1 1 0 5.722 2.86 2.86 0 1 1 0-5.722zM190 182.512a2.86 2.86 0 1 0-5.723 0 2.86 2.86 0 1 0 5.723 0zM2.861 153.325a2.86 2.86 0 1 1 0 5.723A2.86 2.86 0 0 1 0 156.187a2.86 2.86 0 0 1 2.861-2.862zm29.187 2.862a2.86 2.86 0 1 0-5.723 0 2.86 2.86 0 1 0 5.723 0zm23.464-2.862a2.86 2.86 0 1 1 0 5.723 2.86 2.86 0 1 1 0-5.723zm29.187 2.862a2.86 2.86 0 1 0-5.723 0 2.86 2.86 0 1 0 5.723 0zm23.464-2.862a2.86 2.86 0 1 1 0 5.723 2.86 2.86 0 1 1 0-5.723zm29.186 2.862a2.86 2.86 0 1 0-5.722 0 2.86 2.86 0 1 0 5.722 0zm23.464-2.862a2.86 2.86 0 1 1 0 5.723 2.86 2.86 0 1 1 0-5.723zM190 156.187a2.86 2.86 0 1 0-5.723 0 2.86 2.86 0 1 0 5.723 0zM2.861 127a2.86 2.86 0 1 1 0 5.723A2.86 2.86 0 0 1 0 129.861 2.86 2.86 0 0 1 2.861 127zm29.187 2.861a2.86 2.86 0 1 0-5.723 0 2.86 2.86 0 1 0 5.723 0zM55.512 127a2.86 2.86 0 1 1 0 5.723 2.86 2.86 0 1 1 0-5.723zm29.187 2.861a2.86 2.86 0 1 0-5.723 0 2.86 2.86 0 1 0 5.723 0zM108.163 127a2.86 2.86 0 1 1 0 5.723 2.86 2.86 0 1 1 0-5.723zm29.186 2.861a2.86 2.86 0 1 0-5.722 0 2.86 2.86 0 1 0 5.722 0zM160.813 127a2.86 2.86 0 1 1 0 5.723 2.86 2.86 0 0 1 0-5.723zM190 129.861a2.86 2.86 0 1 0-5.723 0 2.86 2.86 0 1 0 5.723 0z"/><path fill="url(#C)" d="M2.861 106.277a2.86 2.86 0 0 1 0 5.723 2.86 2.86 0 0 1 0-5.723zm26.325 0a2.86 2.86 0 0 1 0 5.723 2.86 2.86 0 1 1 0-5.723zm29.187 2.862a2.86 2.86 0 1 0-5.723 0 2.86 2.86 0 0 0 5.723 0zm23.464-2.862a2.86 2.86 0 1 1 0 5.723 2.86 2.86 0 0 1 0-5.723zm29.187 2.862a2.86 2.86 0 1 0-5.723 0 2.86 2.86 0 0 0 5.723 0zm23.464-2.862a2.86 2.86 0 0 1 0 5.723 2.86 2.86 0 0 1 0-5.723zm29.187 2.862a2.86 2.86 0 1 0-5.723 0 2.86 2.86 0 1 0 5.723 0zm23.464-2.862a2.86 2.86 0 0 1 0 5.723 2.86 2.86 0 1 1 0-5.723zM5.723 82.813a2.86 2.86 0 0 0-2.861-2.861A2.86 2.86 0 0 0 0 82.813a2.86 2.86 0 0 0 2.861 2.862 2.86 2.86 0 0 0 2.861-2.862zm23.464-2.861a2.86 2.86 0 1 1 0 5.723 2.86 2.86 0 1 1 0-5.723zm29.187 2.861a2.86 2.86 0 0 0-5.723 0 2.86 2.86 0 1 0 5.723 0zm23.464-2.861a2.86 2.86 0 1 1 0 5.723 2.86 2.86 0 1 1 0-5.723zm29.187 2.861a2.86 2.86 0 0 0-5.723 0 2.86 2.86 0 1 0 5.723 0zm23.464-2.861a2.86 2.86 0 1 1 0 5.723 2.86 2.86 0 1 1 0-5.723zm29.187 2.861a2.86 2.86 0 1 0-5.723 0 2.86 2.86 0 1 0 5.723 0zm23.464-2.861a2.86 2.86 0 1 1 0 5.723 2.86 2.86 0 1 1 0-5.723zM5.723 56.488a2.86 2.86 0 0 0-2.861-2.861A2.86 2.86 0 0 0 0 56.488a2.86 2.86 0 0 0 2.861 2.861 2.86 2.86 0 0 0 2.861-2.861zm23.464-2.861a2.86 2.86 0 0 1 0 5.723 2.86 2.86 0 1 1 0-5.723zm29.187 2.861a2.86 2.86 0 0 0-5.723 0 2.86 2.86 0 1 0 5.723 0zm23.464-2.861a2.86 2.86 0 0 1 0 5.723 2.86 2.86 0 1 1 0-5.723zm29.187 2.861a2.86 2.86 0 0 0-5.723 0 2.86 2.86 0 1 0 5.723 0zm23.464-2.861a2.86 2.86 0 0 1 0 5.723 2.86 2.86 0 0 1 0-5.723zm29.187 2.861a2.86 2.86 0 1 0-5.723 0 2.86 2.86 0 1 0 5.723 0zm23.464-2.861a2.86 2.86 0 0 1 0 5.723 2.86 2.86 0 1 1 0-5.723zM5.723 30.163a2.86 2.86 0 0 0-2.861-2.861A2.86 2.86 0 0 0 0 30.163a2.86 2.86 0 0 0 2.861 2.861 2.86 2.86 0 0 0 2.861-2.861zm23.464-2.861a2.86 2.86 0 0 1 0 5.723 2.86 2.86 0 1 1 0-5.723zm29.187 2.861a2.86 2.86 0 0 0-5.723 0 2.86 2.86 0 1 0 5.723 0zm23.464-2.861a2.86 2.86 0 0 1 0 5.723 2.86 2.86 0 1 1 0-5.723zm29.187 2.861a2.86 2.86 0 1 0-5.723 0 2.86 2.86 0 0 0 5.723 0zm23.464-2.861a2.86 2.86 0 0 1 0 5.723 2.86 2.86 0 1 1 0-5.723zm29.187 2.861a2.86 2.86 0 1 0-5.723 0 2.86 2.86 0 1 0 5.723 0zm23.464-2.861a2.86 2.86 0 0 1 0 5.723 2.86 2.86 0 1 1 0-5.723zM5.723 3.837A2.86 2.86 0 0 0 2.861.976 2.86 2.86 0 0 0 0 3.837a2.86 2.86 0 0 0 2.861 2.861 2.86 2.86 0 0 0 2.861-2.861zM29.187.976a2.86 2.86 0 1 1 0 5.723 2.86 2.86 0 1 1 0-5.723zm29.187 2.861a2.86 2.86 0 0 0-5.723 0 2.86 2.86 0 1 0 5.723 0zM81.837.976a2.86 2.86 0 0 1 0 5.723 2.86 2.86 0 1 1 0-5.723zm29.187 2.861a2.86 2.86 0 0 0-5.723 0 2.86 2.86 0 0 0 5.723 0zM134.488.976a2.86 2.86 0 1 1 0 5.723 2.86 2.86 0 1 1 0-5.723zm29.187 2.861a2.86 2.86 0 1 0-5.723 0 2.86 2.86 0 1 0 5.723 0z"/></g><defs><linearGradient id="A" x1="0" x2="168" y1="427" y2="427" gradientUnits="userSpaceOnUse"><stop stop-color="#a4d421"/><stop offset="1"/></linearGradient><linearGradient id="B" x1="0" x2="169.5" y1="222" y2="222" gradientUnits="userSpaceOnUse"><stop stop-color="#a1d021"/><stop offset="1"/></linearGradient><linearGradient id="C" x1="0" x2="166.5" y1="56.488" y2="56" gradientUnits="userSpaceOnUse"><stop stop-color="#a0cf21"/><stop offset="1"/></linearGradient></defs></svg>